<svg
  xmlns="http://www.w3.org/2000/svg"
  width="512"
  height="512"
  viewBox="0 0 512 512">
    <path
      d="m 464,256 a 208,208 0 0 1 -208,208 208,208 0 0 1 -208,-208 208,208 0 0 1 208,-208 208,208 0 0 1 208,208 z"
      style="fill:#ffe79b;stroke:#ffc107;stroke-width:64"/>
    <path
      d="m 147.02195,146.54546 c 6.70727,0 12.37677,2.31539 17.00796,6.94658 4.63121,4.63121 6.94659,10.3808 6.94659,17.24774 0,6.70726 -2.31538,12.3756 -6.94659,17.00679 -4.63119,4.6312 -10.30069,6.94776 -17.00796,6.94776 -6.70725,0 -12.37675,-2.31656 -17.00796,-6.94776 -4.63119,-4.63119 -6.94658,-10.29953 -6.94658,-17.00679 0,-6.86694 2.31539,-12.61653 6.94658,-17.24774 4.63121,-4.63119 10.30071,-6.94658 17.00796,-6.94658 z m 20.36137,55.45454 v 134.14546 h -40.9625 v -134.14546 z"
      style="fill:#a6986a"/>
    <path
      d="m 194.85151,122.06061 c 8.94301,0 16.50236,3.08718 22.67728,9.26212 6.17494,6.17493 9.26212,13.84105 9.26212,22.99698 0,8.943 -3.08718,16.50081 -9.26212,22.67573 -6.17492,6.17494 -13.73427,9.26367 -22.67728,9.26367 -8.94299,0 -16.50235,-3.08873 -22.67728,-9.26367 -6.17493,-6.17492 -9.26211,-13.73273 -9.26211,-22.67573 0,-9.15593 3.08718,-16.82205 9.26211,-22.99698 6.17493,-6.17494 13.73429,-9.26212 22.67728,-9.26212 z m 27.14849,73.93939 v 178.86063 h -54.61668 v -178.86063 z"
      style="fill:#7a7052"/>
    <path
      d="m 365.37844,146.54546 c -6.70727,0 -12.37677,2.31539 -17.00796,6.94658 -4.63121,4.63121 -6.94659,10.3808 -6.94659,17.24774 0,6.70726 2.31538,12.3756 6.94659,17.00679 4.63119,4.6312 10.30069,6.94776 17.00796,6.94776 6.70725,0 12.37675,-2.31656 17.00796,-6.94776 4.63119,-4.63119 6.94658,-10.29953 6.94658,-17.00679 0,-6.86694 -2.31539,-12.61653 -6.94658,-17.24774 -4.63121,-4.63119 -10.30071,-6.94658 -17.00796,-6.94658 z m -20.36137,55.45454 v 134.14546 h 40.9625 v -134.14546 z"
      style="fill:#a6986a"/>
    <path
      d="m 317.54888,122.06061 c -8.94301,0 -16.50236,3.08718 -22.67728,9.26212 -6.17494,6.17493 -9.26212,13.84105 -9.26212,22.99698 0,8.943 3.08718,16.50081 9.26212,22.67573 6.17492,6.17494 13.73427,9.26367 22.67728,9.26367 8.94299,0 16.50235,-3.08873 22.67728,-9.26367 6.17493,-6.17492 9.26211,-13.73273 9.26211,-22.67573 0,-9.15593 -3.08718,-16.82205 -9.26211,-22.99698 -6.17493,-6.17494 -13.73429,-9.26212 -22.67728,-9.26212 z m -27.14849,73.93939 v 178.86063 h 54.61668 v -178.86063 z"
      style="fill:#7a7052"/>
    <path
      d="m 256,97.400391 c -11.19997,0 -20.66709,3.866299 -28.40039,11.599609 -7.73331,7.73331 -11.59961,17.33415 -11.59961,28.80078 0,11.19997 3.8663,20.66514 11.59961,28.39844 7.7333,7.73331 17.20042,11.60156 28.40039,11.60156 11.19996,0 20.66708,-3.86825 28.40039,-11.60156 7.73331,-7.7333 11.59961,-17.19847 11.59961,-28.39844 0,-11.46663 -3.8663,-21.06747 -11.59961,-28.80078 -7.73331,-7.73331 -17.20043,-11.599609 -28.40039,-11.599609 z m -34,92.599609 v 224 h 68.40039 v -224 z"
      style="fill:#222222"/>
</svg>
